<svg id="visual" viewBox="0 0 900 600" width="900" height="600" xmlns="http://www.w3.org/2000/svg" xmlns:xlink="http://www.w3.org/1999/xlink" version="1.1"><path d="M611 600L593 600L593 563L548 563L548 525L647 525L647 488L557 488L557 450L764 450L764 413L602 413L602 375L746 375L746 338L557 338L557 300L782 300L782 263L656 263L656 225L611 225L611 188L710 188L710 150L773 150L773 113L611 113L611 75L791 75L791 38L728 38L728 0L900 0L900 38L900 38L900 75L900 75L900 113L900 113L900 150L900 150L900 188L900 188L900 225L900 225L900 263L900 263L900 300L900 300L900 338L900 338L900 375L900 375L900 413L900 413L900 450L900 450L900 488L900 488L900 525L900 525L900 563L900 563L900 600L900 600Z" fill="#f1e7e6"></path><path d="M467 600L476 600L476 563L458 563L458 525L602 525L602 488L476 488L476 450L683 450L683 413L476 413L476 375L674 375L674 338L494 338L494 300L710 300L710 263L566 263L566 225L494 225L494 188L647 188L647 150L629 150L629 113L566 113L566 75L674 75L674 38L602 38L602 0L729 0L729 38L792 38L792 75L612 75L612 113L774 113L774 150L711 150L711 188L612 188L612 225L657 225L657 263L783 263L783 300L558 300L558 338L747 338L747 375L603 375L603 413L765 413L765 450L558 450L558 488L648 488L648 525L549 525L549 563L594 563L594 600L612 600Z" fill="#ede1e1"></path><path d="M332 600L368 600L368 563L377 563L377 525L476 525L476 488L413 488L413 450L584 450L584 413L341 413L341 375L539 375L539 338L404 338L404 300L674 300L674 263L530 263L530 225L404 225L404 188L539 188L539 150L584 150L584 113L449 113L449 75L638 75L638 38L566 38L566 0L603 0L603 38L675 38L675 75L567 75L567 113L630 113L630 150L648 150L648 188L495 188L495 225L567 225L567 263L711 263L711 300L495 300L495 338L675 338L675 375L477 375L477 413L684 413L684 450L477 450L477 488L603 488L603 525L459 525L459 563L477 563L477 600L468 600Z" fill="#e8dbdc"></path><path d="M206 600L224 600L224 563L224 563L224 525L296 525L296 488L305 488L305 450L503 450L503 413L251 413L251 375L332 375L332 338L215 338L215 300L404 300L404 263L413 263L413 225L188 225L188 188L440 188L440 150L377 150L377 113L341 113L341 75L449 75L449 38L413 38L413 0L567 0L567 38L639 38L639 75L450 75L450 113L585 113L585 150L540 150L540 188L405 188L405 225L531 225L531 263L675 263L675 300L405 300L405 338L540 338L540 375L342 375L342 413L585 413L585 450L414 450L414 488L477 488L477 525L378 525L378 563L369 563L369 600L333 600Z" fill="#e4d5d8"></path><path d="M80 600L80 600L80 563L89 563L89 525L143 525L143 488L188 488L188 450L179 450L179 413L44 413L44 375L143 375L143 338L98 338L98 300L44 300L44 263L53 263L53 225L71 225L71 188L44 188L44 150L98 150L98 113L98 113L98 75L62 75L62 38L143 38L143 0L414 0L414 38L450 38L450 75L342 75L342 113L378 113L378 150L441 150L441 188L189 188L189 225L414 225L414 263L405 263L405 300L216 300L216 338L333 338L333 375L252 375L252 413L504 413L504 450L306 450L306 488L297 488L297 525L225 525L225 563L225 563L225 600L207 600Z" fill="#dfd0d4"></path><path d="M0 600L0 600L0 563L0 563L0 525L0 525L0 488L0 488L0 450L0 450L0 413L0 413L0 375L0 375L0 338L0 338L0 300L0 300L0 263L0 263L0 225L0 225L0 188L0 188L0 150L0 150L0 113L0 113L0 75L0 75L0 38L0 38L0 0L144 0L144 38L63 38L63 75L99 75L99 113L99 113L99 150L45 150L45 188L72 188L72 225L54 225L54 263L45 263L45 300L99 300L99 338L144 338L144 375L45 375L45 413L180 413L180 450L189 450L189 488L144 488L144 525L90 525L90 563L81 563L81 600L81 600Z" fill="#dacad1"></path></svg>