<?xml version="1.0" encoding="utf-8"?>
<!-- Generator: Adobe Illustrator 25.0.1, SVG Export Plug-In . SVG Version: 6.00 Build 0)  -->
<svg version="1.0" id="Layer_1" xmlns="http://www.w3.org/2000/svg" xmlns:xlink="http://www.w3.org/1999/xlink" x="0px" y="0px"
	 viewBox="0 0 984 597" style="enable-background:new 0 0 984 597;" xml:space="preserve">
<style type="text/css">
	.st0{fill:#3C82E9;}
</style>
<path class="st0" d="M324.7,355.6v-43.4h-45.1v43.4c-0.1,2.8-2.4,5.1-5.2,5.1h-18.7c-2.8,0-5.2-2.3-5.2-5.1V241.2
	c0.1-2.8,2.4-5.1,5.2-5.1h18.7c2.8,0,5.2,2.3,5.2,5.1V284h45.1v-42.8c0.1-2.8,2.3-5,5.1-5.1h18.5c2.8,0.1,5,2.3,5.1,5.1v114.4
	c-0.1,2.8-2.3,5-5.1,5.1h-18.5C327,360.6,324.8,358.4,324.7,355.6z"/>
<path class="st0" d="M699.5,362.3c31.1,0,49.8-20.6,49.8-50.3v-70.9c-0.1-2.8-2.4-5.1-5.2-5.1h-19c-1.3,0-2.6,0.6-3.6,1.5
	c-0.9,0.9-1.5,2.2-1.6,3.6v71.4c0,14.6-9.3,21.9-20.6,21.9s-20.6-7.3-20.6-21.9v-71.4c-0.1-2.8-2.3-5-5.1-5.1h-19
	c-0.7,0-1.4,0.1-2,0.4c-0.6,0.3-1.2,0.6-1.7,1.1c-0.5,0.5-0.8,1-1.1,1.7c-0.3,0.6-0.4,1.3-0.4,1.9v70.9
	C649.7,341.7,668.3,362.3,699.5,362.3z"/>
<path class="st0" d="M774.6,339.2c-0.5,0.5-0.9,1.1-1.2,1.8c-0.3,0.7-0.4,1.4-0.4,2.1c0,0.7,0.2,1.4,0.5,2.1
	c0.3,0.6,0.7,1.2,1.3,1.7c12.8,10.6,29,16.1,45.6,15.5c33.9-0.3,45.7-24,46.5-36.6c1.1-16.8-5.9-33-41.5-40.9
	c-16.6-3.7-24.3-6.9-24.3-14.1c0-6.3,7-10.2,15.3-10.2c9.8,0.1,19.1,3.9,26.2,10.7c2,1.8,5,1.8,7,0l12.1-11.5c0.5-0.5,0.9-1,1.2-1.7
	c0.6-1.3,0.6-2.7,0-4c-0.3-0.6-0.7-1.2-1.2-1.7c-12.2-11.5-28.3-17.9-45-18.1c-26.2,0-45.1,17.5-45.1,38c0,20.6,17.5,31.4,43.8,37.3
	c16.5,3.6,21.6,7.4,21.6,13.3s-5.2,12-16.7,12c-9.5,0.2-18.9-2.6-26.7-8.1c-2-1.3-4.6-1.2-6.4,0.4L774.6,339.2z"/>
<path class="st0" d="M604.6,312.4c13.1-5.9,21.5-18.9,21.6-33.2c0-28.6-18.6-43.1-46.5-43.1h-46c-2.8,0-5.2,2.3-5.2,5.1v114.4
	c0.1,2.8,2.4,5.1,5.2,5.1h18.5c1.3,0,2.6-0.6,3.6-1.5c0.9-1,1.5-2.2,1.5-3.6v-37h19.8l19.9,39.2c0.4,0.8,1.1,1.5,1.9,2
	c0.8,0.5,1.7,0.8,2.6,0.8h20.6c1.8-0.1,3.4-1,4.3-2.5c0.9-1.5,1-3.4,0.2-5L604.6,312.4z M579.7,292.2h-22.3V263h22.3
	c11,0,17.2,5.1,17.2,14.6C597,287.9,590.7,292.2,579.7,292.2z"/>
<path class="st0" d="M211.2,324.7c-1.9-2-5.1-2-7.1,0c0,0,0,0,0,0c-6.3,6.1-14.8,9.4-23.5,9.2c-22.3,0-34.5-18.3-34.5-35.4
	c0-17.6,12.8-35.7,34.9-35.7c8.7-0.3,17.2,3,23.3,9.2c0.5,0.5,1,0.9,1.6,1.1c1.2,0.5,2.6,0.5,3.9,0c0.6-0.3,1.2-0.6,1.6-1.1
	l13.2-13.2c0.5-0.5,0.9-1,1.2-1.7c0.5-1.3,0.5-2.7,0-4c-0.3-0.6-0.7-1.2-1.2-1.7c-11.9-11-27.6-17.1-43.8-16.8
	c-34.5,0-63.8,26-63.8,64c-0.8,34.5,26.6,63.2,61.1,63.9c0.9,0,1.8,0,2.6,0c16.3,0.3,32-5.9,43.8-17.1c0.5-0.5,0.9-1,1.1-1.7
	c0.3-0.6,0.4-1.3,0.4-2c0-0.7-0.1-1.4-0.4-2c-0.3-0.6-0.6-1.2-1.1-1.7L211.2,324.7z"/>
<path class="st0" d="M441,233c-36.1,0-65.3,29.3-65.3,65.4c0,36.1,29.3,65.3,65.4,65.3s65.3-29.3,65.3-65.4
	c0-26.5-16-50.3-40.4-60.4C458.1,234.7,449.6,233,441,233z M405.6,306.8c-0.2,2.8-2.7,4.9-5.5,4.7c-2.5-0.2-4.5-2.2-4.7-4.7V290
	c-0.1-1.4,0.4-2.8,1.4-3.8c0.5-0.5,1.1-0.9,1.7-1.2c1.3-0.6,2.8-0.6,4.1,0c0.6,0.3,1.2,0.7,1.7,1.2c0.5,0.5,0.8,1.1,1.1,1.8
	c0.2,0.7,0.3,1.4,0.3,2.1L405.6,306.8z M422.1,323.9c0.1,0.7,0,1.4-0.3,2.1c-0.5,1.3-1.5,2.4-2.8,3c-1.3,0.6-2.8,0.6-4.1,0
	c-1.3-0.6-2.3-1.7-2.8-3c-0.2-0.7-0.3-1.4-0.3-2.1v-51c-0.1-0.7,0-1.4,0.3-2.1c0.5-1.3,1.5-2.4,2.8-3c1.3-0.6,2.8-0.6,4.1,0
	c1.3,0.6,2.3,1.7,2.8,3c0.2,0.7,0.3,1.4,0.3,2.1V323.9z M438.7,338.8c0.2,0.8,0.2,1.6,0,2.3c-0.2,0.8-0.5,1.5-1,2.1
	c-1.8,2.3-5.1,2.6-7.3,0.8c-0.3-0.2-0.6-0.5-0.8-0.8c-0.5-0.6-0.8-1.3-1-2.1c-0.2-0.8-0.2-1.6,0-2.3v-80.9c0.6-2.8,3.4-4.6,6.3-3.9
	c2,0.4,3.5,2,3.9,3.9L438.7,338.8z M455.3,323.3c0.1,0.7,0,1.4-0.3,2.1c-0.5,1.3-1.5,2.4-2.8,3c-1.3,0.6-2.8,0.6-4.1,0
	c-1.3-0.6-2.3-1.7-2.8-3c-0.2-0.7-0.3-1.4-0.3-2.1v-49.8c-0.1-0.7,0-1.4,0.3-2.1c0.2-0.7,0.6-1.3,1.1-1.8c0.5-0.5,1.1-0.9,1.7-1.2
	c1.3-0.6,2.8-0.6,4.1,0c0.6,0.3,1.2,0.7,1.7,1.2c0.5,0.5,0.8,1.1,1.1,1.8c0.2,0.7,0.3,1.4,0.3,2.1L455.3,323.3z M471.9,331.2
	c-0.6,2.8-3.4,4.6-6.3,3.9c-0.8-0.2-1.5-0.5-2.1-1c-0.9-0.7-1.6-1.8-1.8-2.9v-65.4c0-2.8,2.3-5.1,5.1-5.1s5.1,2.3,5.1,5.1
	L471.9,331.2z M488.4,306.2c-0.2,2.8-2.6,4.9-5.4,4.8c-2.6-0.2-4.6-2.2-4.8-4.8v-15.4c-0.1-1.4,0.4-2.8,1.4-3.8
	c0.5-0.5,1-0.9,1.7-1.2c0.6-0.3,1.3-0.4,2-0.4c1.4,0,2.8,0.6,3.7,1.6c0.5,0.5,0.8,1.1,1.1,1.8c0.2,0.7,0.3,1.4,0.3,2.1L488.4,306.2z
	"/>
</svg>
