<?xml version="1.0" encoding="UTF-8"?> <svg xmlns="http://www.w3.org/2000/svg" xmlns:xlink="http://www.w3.org/1999/xlink" viewBox="0 0 130.38 44.74"><defs><linearGradient id="linear-gradient" x1="-23.32" y1="1092.97" x2="0.57" y2="1092.97" gradientTransform="translate(22.61 -1077) rotate(-0.04)" gradientUnits="userSpaceOnUse"><stop offset="0" stop-color="#da2024"></stop><stop offset="0.23" stop-color="#d62024"></stop><stop offset="0.45" stop-color="#cb2022"></stop><stop offset="0.65" stop-color="#b92020"></stop><stop offset="0.85" stop-color="#9f211d"></stop><stop offset="1" stop-color="#86211a"></stop></linearGradient><linearGradient id="linear-gradient-2" x1="-15.05" y1="1117.3" x2="16.71" y2="1117.3" gradientTransform="translate(22.61 -1077) rotate(-0.04)" gradientUnits="userSpaceOnUse"><stop offset="0" stop-color="#005626"></stop><stop offset="0.18" stop-color="#27722a"></stop><stop offset="0.45" stop-color="#5d9931"></stop><stop offset="0.69" stop-color="#85b635"></stop><stop offset="0.88" stop-color="#9dc838"></stop><stop offset="1" stop-color="#a6ce39"></stop></linearGradient><linearGradient id="linear-gradient-3" x1="13.01" y1="1121.07" x2="13.01" y2="1121.07" gradientTransform="translate(22.61 -1077) rotate(-0.04)" gradientUnits="userSpaceOnUse"><stop offset="0" stop-color="#f7941d"></stop><stop offset="0.13" stop-color="#f8a318"></stop><stop offset="0.51" stop-color="#fccb0b"></stop><stop offset="0.81" stop-color="#fee303"></stop><stop offset="1" stop-color="#ffec00"></stop></linearGradient><linearGradient id="linear-gradient-4" x1="15.92" y1="1115.6" x2="15.92" y2="1084.9" xlink:href="#linear-gradient-3"></linearGradient><linearGradient id="linear-gradient-5" x1="-11.82" y1="1097.56" x2="-18.05" y2="1120.78" gradientTransform="translate(22.61 -1077) rotate(-0.04)" gradientUnits="userSpaceOnUse"><stop offset="0" stop-color="#808285"></stop><stop offset="0.26" stop-color="#7d7f82"></stop><stop offset="0.43" stop-color="#75777a"></stop><stop offset="0.57" stop-color="#67686b"></stop><stop offset="0.7" stop-color="#525355"></stop><stop offset="0.82" stop-color="#38393a"></stop><stop offset="0.93" stop-color="#181819"></stop><stop offset="1"></stop></linearGradient><linearGradient id="linear-gradient-6" x1="-0.57" y1="1086.83" x2="15.23" y2="1086.83" gradientTransform="translate(22.61 -1077) rotate(-0.04)" gradientUnits="userSpaceOnUse"><stop offset="0" stop-color="#0093d8"></stop><stop offset="0.31" stop-color="#0090d5"></stop><stop offset="0.56" stop-color="#0086cd"></stop><stop offset="0.79" stop-color="#0075bf"></stop><stop offset="1" stop-color="#005ead"></stop></linearGradient></defs><g style="isolation: isolate"><g id="Layer_2" data-name="Layer 2"><g id="Layer_1-2" data-name="Layer 1"><g style="mix-blend-mode: multiply"><g><path d="M127.72,44.6V40.21h.67L129.94,44l-.05-3.76h.49V44.6h-.64l-1.58-3.87.05,3.87Zm-3.79-2.19a3.51,3.51,0,0,1,.33-1.76,1.4,1.4,0,0,1,2.2,0,3.51,3.51,0,0,1,.34,1.77,3.43,3.43,0,0,1-.34,1.77,1.2,1.2,0,0,1-1.1.53,1.18,1.18,0,0,1-1.09-.54A3.41,3.41,0,0,1,123.93,42.41Zm.51,0a3.52,3.52,0,0,0,.21,1.46.72.72,0,0,0,.71.4.75.75,0,0,0,.72-.39,3.7,3.7,0,0,0,.2-1.47,3.7,3.7,0,0,0-.2-1.47.75.75,0,0,0-.72-.39.73.73,0,0,0-.71.4A3.52,3.52,0,0,0,124.44,42.41Zm-2,2.19V40.22H123V44.6Zm-2.28,0V40.67h-1.15v-.45h2.73v.45h-1.07V44.6Zm-4.2,0,1.22-4.39h.64l1.24,4.39h-.51l-.34-1.27h-1.42l-.32,1.27ZM117,42.9h1.19l-.6-2.3Zm-4.23,1.71V40.22H114a1.58,1.58,0,0,1,1,.28,1,1,0,0,1,.34.85,1.08,1.08,0,0,1-.21.7,1,1,0,0,1-.62.37.79.79,0,0,1,.55.24,1,1,0,0,1,.23.63c0,.11,0,.26,0,.44,0,.48.11.77.24.88H115a1.94,1.94,0,0,1-.12-.72c0-.18,0-.33,0-.44a.9.9,0,0,0-.24-.62,1.13,1.13,0,0,0-.71-.17h-.64v2Zm.49-2.37h.61a1.29,1.29,0,0,0,.77-.2.78.78,0,0,0,.25-.62.72.72,0,0,0-.22-.58,1.06,1.06,0,0,0-.71-.19h-.7Zm-4.28.18a3.4,3.4,0,0,1,.33-1.76,1.4,1.4,0,0,1,2.2,0,3.48,3.48,0,0,1,.34,1.77,3.36,3.36,0,0,1-.34,1.76,1.38,1.38,0,0,1-2.19,0A3.43,3.43,0,0,1,108.94,42.42Zm.51,0a3.52,3.52,0,0,0,.21,1.46.73.73,0,0,0,.71.4.75.75,0,0,0,.72-.39,3.7,3.7,0,0,0,.2-1.47,3.48,3.48,0,0,0-.21-1.47.72.72,0,0,0-.71-.39.72.72,0,0,0-.71.4A3.52,3.52,0,0,0,109.45,42.42Zm-3.8,2.19V40.23h1.15a1.57,1.57,0,0,1,1.07.29,1.17,1.17,0,0,1,.34.93,1.33,1.33,0,0,1-.35,1,1.48,1.48,0,0,1-1,.33h-.67v1.84Zm.5-2.28h.66a.77.77,0,0,0,.88-.88.76.76,0,0,0-.22-.61,1,1,0,0,0-.69-.19h-.63ZM102,44.62V40.23h1.25a1.59,1.59,0,0,1,1,.28,1,1,0,0,1,.33.84,1.11,1.11,0,0,1-.2.71,1,1,0,0,1-.63.37.83.83,0,0,1,.56.23,1.08,1.08,0,0,1,.23.64c0,.11,0,.25,0,.44q0,.72.24.87h-.62a2,2,0,0,1-.12-.72q0-.28,0-.45a.94.94,0,0,0-.24-.62,1.16,1.16,0,0,0-.72-.16h-.63v1.95Zm.49-2.38h.6a1.2,1.2,0,0,0,.78-.2.74.74,0,0,0,.24-.61.71.71,0,0,0-.22-.59,1.09,1.09,0,0,0-.7-.18h-.7Zm-4.29.19a3.43,3.43,0,0,1,.34-1.77,1.41,1.41,0,0,1,2.2,0,3.48,3.48,0,0,1,.33,1.76,3.5,3.5,0,0,1-.33,1.77,1.18,1.18,0,0,1-1.1.53,1.21,1.21,0,0,1-1.1-.54A3.47,3.47,0,0,1,98.16,42.43Zm.52,0a3.52,3.52,0,0,0,.21,1.46.72.72,0,0,0,.71.4.72.72,0,0,0,.71-.39,3.56,3.56,0,0,0,.21-1.48,3.45,3.45,0,0,0-.21-1.46.73.73,0,0,0-.71-.4.72.72,0,0,0-.71.41A3.48,3.48,0,0,0,98.68,42.43ZM96.79,43h.5a2.06,2.06,0,0,1-.36,1.27,1.17,1.17,0,0,1-1,.45,1.13,1.13,0,0,1-1-.56,3.53,3.53,0,0,1-.33-1.73,3.53,3.53,0,0,1,.33-1.76A1.14,1.14,0,0,1,96,40.13a1.22,1.22,0,0,1,.94.35,1.43,1.43,0,0,1,.34,1v.05h-.49a1.06,1.06,0,0,0-.21-.7.74.74,0,0,0-.59-.26.68.68,0,0,0-.66.44,3.79,3.79,0,0,0-.2,1.44,3.35,3.35,0,0,0,.21,1.4.7.7,0,0,0,.68.42.66.66,0,0,0,.59-.31,1.6,1.6,0,0,0,.2-.87Zm-7.11.22h.48v.16a.94.94,0,0,0,.21.67.79.79,0,0,0,.63.23.76.76,0,0,0,.58-.22.83.83,0,0,0,.21-.6.74.74,0,0,0-.13-.48,1.32,1.32,0,0,0-.58-.33l-.3-.11a2.77,2.77,0,0,1-.66-.29,1,1,0,0,1-.28-.39,1.38,1.38,0,0,1-.09-.52,1.17,1.17,0,0,1,.32-.89,1.19,1.19,0,0,1,.9-.33,1.2,1.2,0,0,1,.86.3,1.13,1.13,0,0,1,.31.83.43.43,0,0,0,0,.05v.06h-.46v0a.85.85,0,0,0-.18-.57.71.71,0,0,0-.53-.2.77.77,0,0,0-.55.2.68.68,0,0,0-.2.51.74.74,0,0,0,.14.48,1.32,1.32,0,0,0,.6.34l.16.06a3.08,3.08,0,0,1,.84.38.85.85,0,0,1,.24.37,1.58,1.58,0,0,1-.27,1.49,1.33,1.33,0,0,1-1,.34,1.22,1.22,0,0,1-.94-.34,1.38,1.38,0,0,1-.32-1v-.15ZM86,44.63l1.22-4.39h.63l1.25,4.38h-.51l-.34-1.27H86.81l-.33,1.27Zm.94-1.71h1.19l-.59-2.3Zm-2,1.71,0-.61a1,1,0,0,1-.39.53,1.12,1.12,0,0,1-.64.18,1.16,1.16,0,0,1-1.07-.56,3.59,3.59,0,0,1-.34-1.76,3.19,3.19,0,0,1,.36-1.73A1.28,1.28,0,0,1,84,40.14a1.29,1.29,0,0,1,1,.35,1.5,1.5,0,0,1,.35,1h-.5a1.1,1.1,0,0,0-.23-.7.75.75,0,0,0-.6-.24.77.77,0,0,0-.74.44A3.81,3.81,0,0,0,83,42.55a2.88,2.88,0,0,0,.23,1.3.84.84,0,0,0,1.4.09,1.7,1.7,0,0,0,.23-1v-.12s0,0,0-.08h-1v-.45H85.3v2.29Zm-5.14,0-.31-.43a1.38,1.38,0,0,1-.49.38,1.6,1.6,0,0,1-.62.13,1.15,1.15,0,0,1-.88-.36,1.38,1.38,0,0,1-.14-1.65,2,2,0,0,1,.68-.58,2.63,2.63,0,0,1-.31-.52,1.2,1.2,0,0,1-.12-.47.86.86,0,0,1,.9-.9.88.88,0,0,1,.63.24.82.82,0,0,1,.24.61,1.11,1.11,0,0,1-.18.6,1.85,1.85,0,0,1-.56.5l.86,1.22a2,2,0,0,0,.08-.35,2.86,2.86,0,0,0,.06-.46h.48a3.31,3.31,0,0,1-.12.68,1.71,1.71,0,0,1-.22.51l.6.85Zm-.55-.78-1-1.4a1.28,1.28,0,0,0-.46.43.93.93,0,0,0-.15.52.9.9,0,0,0,.23.62.76.76,0,0,0,.58.25,1,1,0,0,0,.43-.11A1.28,1.28,0,0,0,79.23,43.85Zm-.83-2a1.1,1.1,0,0,0,.36-.35.71.71,0,0,0,.13-.41.5.5,0,0,0-.11-.34.39.39,0,0,0-.3-.12.41.41,0,0,0-.31.12.51.51,0,0,0-.11.34.72.72,0,0,0,.1.34A1.8,1.8,0,0,0,78.4,41.86Zm-5.74,2.78V40.25h.5v3.91H75v.47Zm-1.52,0V40.25h.52v4.39Zm-3.8-2.19a3.43,3.43,0,0,1,.34-1.77,1.2,1.2,0,0,1,1.09-.53,1.18,1.18,0,0,1,1.1.53,3.36,3.36,0,0,1,.34,1.76,3.5,3.5,0,0,1-.33,1.77,1.4,1.4,0,0,1-2.2,0A3.37,3.37,0,0,1,67.34,42.45Zm.52,0a3.74,3.74,0,0,0,.2,1.46.74.74,0,0,0,.72.4.72.72,0,0,0,.71-.39,3.79,3.79,0,0,0,.2-1.48,3.67,3.67,0,0,0-.2-1.46.83.83,0,0,0-1.43,0A3.52,3.52,0,0,0,67.86,42.45Zm-5,2.19V40.26H65v.46H63.3v1.41h1.62v.44H63.3v1.62h1.75v.46Zm-3.05,0V40.26h.5v3.91h1.79v.47Zm-1.53,0V40.26h.51v4.38Zm-3.44,0V40.26H56a1.34,1.34,0,0,1,.91.26,1.08,1.08,0,0,1,.29.84A1.09,1.09,0,0,1,57,42a.75.75,0,0,1-.46.32.87.87,0,0,1,.57.34A1.48,1.48,0,0,1,57,44.32a1.29,1.29,0,0,1-1,.33Zm.49-.44h.63a1,1,0,0,0,.66-.18.85.85,0,0,0,.2-.62.91.91,0,0,0-.21-.68,1,1,0,0,0-.73-.2h-.55Zm0-2.08h.53a1,1,0,0,0,.66-.18.72.72,0,0,0,.19-.58.69.69,0,0,0-.19-.56,1.09,1.09,0,0,0-.69-.16h-.5Zm-2,2.52V40.26h.52v4.39Z" style="fill: #4d4d4d"></path><path d="M130.19,27.77a8.59,8.59,0,0,1-3,6.16A11.41,11.41,0,0,1,120,36.1q-5.22,0-8-3.08t-2.76-8.72c0-3.93.93-6.88,2.81-8.85s4.69-3.09,8.31-3.09a10.68,10.68,0,0,1,7,2.16,8.31,8.31,0,0,1,2.82,5.89h-2.88A2.34,2.34,0,0,1,125,19a6.26,6.26,0,0,0-1.14-1.5,5.83,5.83,0,0,0-3.55-1,5.91,5.91,0,0,0-4.75,2A9,9,0,0,0,114,24.3a8.77,8.77,0,0,0,1.61,5.64,5.46,5.46,0,0,0,4.63,2,5.78,5.78,0,0,0,3.55-1.06,5.45,5.45,0,0,0,1.8-3.14ZM102.68,32.9a7.55,7.55,0,0,1-2.88,2.49,9.88,9.88,0,0,1-3.82.72,10,10,0,0,1-7.84-3.2q-3-3.15-3-8.66c0-3.62,1-6.49,2.88-8.59a10.31,10.31,0,0,1,8-3.28,11.81,11.81,0,0,1,7.1,2,8.67,8.67,0,0,1,3.28,5.65h-3.21a2.21,2.21,0,0,1-2.08-1.25,5,5,0,0,0-1.34-1.45,6.19,6.19,0,0,0-3.55-.92,5.58,5.58,0,0,0-4.55,2A9.19,9.19,0,0,0,90,24.25,8.83,8.83,0,0,0,91.76,30a5.8,5.8,0,0,0,4.76,2,5.59,5.59,0,0,0,3.75-1.25,6.12,6.12,0,0,0,1.87-3.62H99.33a2.35,2.35,0,0,1-1.71-.69,2.22,2.22,0,0,1-.71-1.66V23.32h9.58V35.59h-1.28a2.21,2.21,0,0,1-2.34-1.84ZM59.94,24.34c0-3.68,1-6.58,2.94-8.73a11.08,11.08,0,0,1,8.24-3.22,11.17,11.17,0,0,1,8.25,3.21,12.39,12.39,0,0,1,3,8.72,12.1,12.1,0,0,1-3,8.65,11,11,0,0,1-8.24,3.16A10.88,10.88,0,0,1,62.89,33Q59.94,29.85,59.94,24.34Zm4.76,0a8.76,8.76,0,0,0,1.68,5.78,5.8,5.8,0,0,0,4.76,2,5.9,5.9,0,0,0,4.75-2,8.78,8.78,0,0,0,1.74-5.78,9.07,9.07,0,0,0-1.75-5.84,5.9,5.9,0,0,0-4.75-2,5.83,5.83,0,0,0-4.76,2A9,9,0,0,0,64.7,24.33ZM53.26,35.6V15.4a2.25,2.25,0,0,1,.7-1.67A2.35,2.35,0,0,1,55.66,13H58L58,35.6Z" style="fill: #4d4d4d"></path></g><g><path d="M1.62,15.37A3.93,3.93,0,0,0,.19,19.76l4,12.2c-1.32-10.63,5.1-14.7,5.1-14.7s8.21-5.88,12.42-9c4-3,1.29-7.82,1-8.24Z" style="fill: url(#linear-gradient)"></path><path d="M40,36a14.44,14.44,0,0,1-7.35,2.62c-4.69.45-11.41-.14-18-.13a6,6,0,0,0-6.4,6.09H34.41a3.92,3.92,0,0,0,3.73-2.72L40,36Z" style="fill: url(#linear-gradient-2)"></path><g><polygon points="36.34 44.08 36.34 44.08 36.34 44.08 36.34 44.08" style="fill: url(#linear-gradient-3)"></polygon><path d="M43.89,15.34,33.64,7.91C40.79,15.69,38,22.67,38,22.67s-3.19,9.58-4.76,14.59A5.87,5.87,0,0,0,33,38.61,14.38,14.38,0,0,0,40,36h0l5.31-16.31a3.66,3.66,0,0,0,.18-.92A3.9,3.9,0,0,0,43.89,15.34Z" style="fill: url(#linear-gradient-4)"></path></g><path d="M12.5,38.78a7.08,7.08,0,0,0-.31-1.52c-1.72-5.53-4.8-14.92-4.8-14.92a8.42,8.42,0,0,1-.31-2.94C5.36,21.6,3.38,25.61,4.17,32L8.28,44.6S8.18,40,12.5,38.78Z" style="fill: url(#linear-gradient-5)"></path><path d="M33.64,7.91,22.74,0h0c.23.37,2.44,4.26,0,7.22a7.32,7.32,0,0,0,1.47,1.4s10.05,7.16,11.52,8.19a14.06,14.06,0,0,1,2.79,2.85h0C38.64,16.91,37.91,12.55,33.64,7.91Z" style="fill: url(#linear-gradient-6)"></path></g></g></g></g></g></svg> 